<svg t="1725345323041" class="icon" viewBox="0 0 1024 1024" version="1.1" xmlns="http://www.w3.org/2000/svg" p-id="7578" width="200" height="200">
	<path d="M512 512m-410.67 0a410.67 410.67 0 1 0 821.34 0 410.67 410.67 0 1 0-821.34 0Z" fill="#FFCB09" p-id="7579" data-spm-anchor-id="a313x.search_index.0.i10.5afc3a81dY6Brp" class="selected">
	</path>
	<path d="M512 101.33c-226.81 0-410.67 183.86-410.67 410.67S285.19 922.67 512 922.67 922.67 738.8 922.67 512 738.8 101.33 512 101.33zM493.33 904C287.15 904 120 736.85 120 530.67s167.15-373.33 373.33-373.33 373.33 167.15 373.33 373.33S699.52 904 493.33 904z m112-224a37.34 37.34 0 0 1-26.51-10.83l-112-112a37.364 37.364 0 0 1-10.83-26.51v-224c0-20.62 16.71-37.33 37.33-37.33 20.62 0 37.33 16.71 37.33 37.33v208.69l101.17 101.17c14.64 14.52 14.74 38.16 0.22 52.8a37.314 37.314 0 0 1-26.72 11.04V680z" fill="#CCA812" p-id="7580" data-spm-anchor-id="a313x.search_index.0.i11.5afc3a81dY6Brp" class="">
	</path>
	<path d="M512 960C264.58 960 64 759.42 64 512S264.58 64 512 64s448 200.58 448 448-200.58 448-448 448z m0-821.33c-206.19 0-373.33 167.15-373.33 373.33S305.81 885.33 512 885.33 885.33 718.19 885.33 512 718.19 138.67 512 138.67z m138.51 511.84c14.48-14.56 14.48-38.08 0-52.64L549.33 496.69V288c0-20.62-16.71-37.33-37.33-37.33-20.62 0-37.33 16.72-37.33 37.33v224a37.34 37.34 0 0 0 10.83 26.51l112 112c14.56 14.48 38.08 14.48 52.64 0h0.37z" fill="#6b5458" p-id="7581" data-spm-anchor-id="a313x.search_index.0.i7.5afc3a81dY6Brp" class="">
	</path>
</svg>
